HIERARCHY
ROOT Hips
{
	OFFSET 0.000000 0.000000 0.000000 
	CHANNELS 6 Xposition Yposition Zposition Yrotation Zrotation Xrotation 
	JOINT Lumbar
	{
		OFFSET 0.000000 0.000000 0.000000 
		CHANNELS 3 Zrotation Xrotation Yrotation
		JOINT Neck
		{
			OFFSET 0.000000 0.445665 0.000000 
			CHANNELS 3 Zrotation Xrotation Yrotation
			End Site
			{
				OFFSET 0.000000 0.227535 0.000000 
			}
		}
		JOINT RightShoulder
		{
			OFFSET 0.019635 0.377685 0.194865 
			CHANNELS 3 Zrotation Xrotation Yrotation
			JOINT RightElbow
			{
				OFFSET 0.000000 -0.243375 0.000000 
				CHANNELS 2 Zrotation Yrotation
				JOINT RightWrist
				{
					OFFSET 0.000000 -0.264825 0.000000 
					CHANNELS 2 Zrotation Xrotation
					End Site
					{
						OFFSET 0.006600 -0.176220 0.000990 
					}
				}
			}
		}
		JOINT LeftShoulder
		{
			OFFSET 0.019635 0.377685 -0.194865 
			CHANNELS 3 Zrotation Xrotation Yrotation
			JOINT LeftElbow
			{
				OFFSET 0.000000 -0.243375 0.000000 
				CHANNELS 2 Zrotation Yrotation
				JOINT LeftWrist
				{
					OFFSET 0.000000 -0.264825 0.000000 
					CHANNELS 2 Zrotation Xrotation
					End Site
					{
						OFFSET 0.006600 -0.176220 -0.000990 
					}
				}
			}
		}
	}
	JOINT RightHip
	{
		OFFSET 0.052140 -0.069960 0.075570 
		CHANNELS 3 Zrotation Xrotation Yrotation
		JOINT RightKnee
		{
			OFFSET 0.000000 -0.402270 0.000000 
			CHANNELS 1 Zrotation
			JOINT RightAnkle
			{
				OFFSET 0.000000 -0.404085 0.000000 
				CHANNELS 3 Zrotation Xrotation Yrotation
				End Site
				{
					OFFSET 0.204105 -0.089430 0.008415 
				}
			}
		}
	}
	JOINT LeftHip
	{
		OFFSET 0.052140 -0.069960 -0.075570 
		CHANNELS 3 Zrotation Xrotation Yrotation
		JOINT LeftKnee
		{
			OFFSET 0.000000 -0.402270 0.000000 
			CHANNELS 1 Zrotation
			JOINT LeftAnkle
			{
				OFFSET 0.000000 -0.404085 0.000000 
				CHANNELS 3 Zrotation Xrotation Yrotation
				End Site
				{
					OFFSET 0.204105 -0.089430 -0.008415 
				}
			}
		}
	}
}
MOTION
Frames: 16
Frame Time: 0.02
-0.3427 -0.01028 0.09957 -94.04036 -28.04596 -6.40852 35.28092 0.07635 -6.36829 -1.61418 24.471 -0.83079 49.75 11.39652 24.6252 136.85469 127.79153 -59.19328 -8.41071 -23.89172 9.92327 -5.15273 50.58104 -57.75101 -21.78853 -0.76121 29.15879 8.98763 -18.16106 -17.67087 -6.32216 -2.17615 -1.74553 47.39306 16.10289 -6.68314 -60.58205 -11.35693 0.8552 1.19162
-0.34137 -0.01141 0.0931 -94.02878 -28.2437 -6.32852 34.01269 0.4578 -6.2867 -0.8921 24.40536 -0.83079 49.21291 11.40581 25.15548 136.99317 127.48955 -59.24415 -8.35894 -23.23859 9.82246 -4.65343 50.07694 -58.03394 -21.40526 -0.78288 29.84827 8.97285 -17.7856 -17.7286 -6.31658 -2.26459 -1.79071 49.48026 15.49755 -6.24986 -62.66995 -11.362 1.17625 1.37328
-0.33978 -0.01254 0.08614 -94.0223 -28.46659 -6.26266 32.63159 0.86051 -6.2463 -0.05734 24.35426 -0.83079 48.67526 11.40015 25.85907 137.15913 127.10583 -59.40237 -8.28993 -22.52952 9.73923 -4.24511 49.49804 -58.38116 -21.00768 -0.79653 30.59972 8.96796 -17.31558 -17.78645 -6.31718 -2.3675 -1.84332 51.64378 14.81401 -5.78169 -64.70052 -11.26859 1.55227 1.58282
-0.33829 -0.01363 0.07938 -93.99972 -28.6989 -6.1853 31.31241 1.24816 -6.19415 0.7436 24.29979 -0.83079 48.13313 11.40186 26.48819 137.30825 126.76656 -59.5043 -8.23676 -21.82997 9.64813 -3.81302 48.94565 -58.71067 -20.62125 -0.81035 31.34618 8.95019 -16.89087 -17.843 -6.31667 -2.46375 -1.89275 53.774 14.1678 -5.30915 -66.65896 -11.20876 1.88785 1.77048
-0.33684 -0.01492 0.07271 -94.03578 -28.84198 -6.13097 29.9396 1.66167 -6.11264 1.47393 24.23299 -0.83079 47.60106 11.40212 27.10198 137.47823 126.4008 -59.64129 -8.15089 -21.19646 9.55683 -3.30417 48.42401 -58.99592 -20.21447 -0.83818 31.9965 8.96837 -16.46036 -17.90605 -6.30892 -2.56012 -1.94123 55.91469 13.51484 -4.91704 -69.05895 -11.19665 2.28858 1.99696
-0.33526 -0.01579 0.06574 -93.95071 -29.17805 -6.03141 28.65729 2.02482 -6.10146 2.37676 24.19499 -0.83079 47.05473 11.40145 27.78687 137.60975 126.0701 -59.72962 -8.12705 -20.4124 9.46929 -2.97764 47.8218 -59.38527 -19.84724 -0.83549 32.86123 8.91387 -16.0179 -17.95497 -6.31778 -2.65979 -1.9935 58.04191 12.85627 -4.35333 -70.50566 -11.06284 2.56741 2.14969
-0.33334 -0.01549 0.05796 -93.53099 -30.03148 -5.80453 27.62534 2.24835 -6.28101 3.73095 24.23129 -0.83079 46.43249 11.40192 28.63716 137.63576 125.84364 -59.65592 -8.29834 -19.22855 9.39697 -3.13599 47.00514 -60.06752 -19.58951 -0.74666 34.30088 8.65616 -15.56594 -17.96687 -6.37034 -2.76485 -2.05423 60.15583 12.21236 -3.29682 -69.45558 -10.60079 2.48746 2.08634
-0.33129 -0.01476 0.04991 -92.98964 -31.07944 -5.53191 26.69444 2.41936 -6.52833 5.25354 24.29648 -0.83079 45.80402 11.40175 29.55078 137.62062 125.65642 -59.52984 -8.52928 -17.89542 9.32649 -3.47538 46.11256 -60.84805 -19.37286 -0.62812 35.95342 8.32542 -15.1049 -17.96418 -6.43944 -2.87272 -2.1185 62.24338 11.5644 -2.07511 -67.4261 -10.02237 2.28448 1.94882
-0.32932 -0.01421 0.04205 -92.50231 -32.0454 -5.27845 25.73586 2.61083 -6.74093 6.69758 24.34893 -0.83079 45.20294 11.40177 30.42747 137.61903 125.45921 -59.42751 -8.71983 -16.62862 9.24885 -3.72861 45.26055 -61.56938 -19.13939 -0.52576 37.51066 8.02739 -14.64673 -17.96645 -6.50155 -2.97959 -2.18134 64.31391 10.90985 -0.9463 -65.75933 -9.50761 2.14339 1.84888
-0.32727 -0.01373 0.03389 -92.01754 -32.98784 -5.02958 24.69578 2.81689 -6.9733 8.15607 24.399 -0.83079 44.49663 11.40197 31.34405 137.63962 125.22788 -59.32706 -8.96494 -15.36395 9.19728 -3.99731 44.37749 -62.35434 -18.89706 -0.41194 39.06755 7.72955 -14.18922 -17.97509 -6.56206 -3.08619 -2.24393 66.51173 10.28428 0.26247 -64.42656 -8.94409 1.97886 1.73352
-0.32535 -0.01301 0.0263 -91.50213 -34.02181 -4.76362 23.8515 2.98052 -7.17781 9.62053 24.46227 -0.83079 44.00979 11.40153 32.19104 137.60462 125.07578 -59.21155 -9.11193 -14.06297 9.09315 -4.2807 43.54562 -63.02927 -18.68382 -0.31487 40.67043 7.4166 -13.73116 -17.96785 -6.62924 -3.19334 -2.3075 68.43467 9.60329 1.33914 -62.1814 -8.45563 1.83339 1.63238
-0.32378 -0.01168 0.02016 -90.90092 -35.28905 -4.43151 23.51962 3.03333 -7.30799 11.08023 24.54147 -0.83079 44.11564 11.40222 32.8235 137.41973 125.15287 -59.04348 -8.96381 -12.67448 8.83038 -4.51589 42.84366 -63.37626 -18.53477 -0.27278 42.38573 7.05584 -13.26034 -17.91276 -6.71489 -3.30526 -2.37519 69.62442 8.72894 2.04697 -57.52681 -8.20452 1.76901 1.5879
-0.32236 -0.01014 0.01463 -90.27896 -36.63597 -4.08947 23.38266 3.04631 -7.4042 12.53556 24.63559 -0.83079 44.44502 11.40192 33.38419 137.18157 125.30568 -58.86595 -8.71681 -11.25964 8.51709 -4.76707 42.20201 -63.60911 -18.41463 -0.24834 44.13211 6.68679 -12.79317 -17.84352 -6.80581 -3.41672 -2.4432 70.53413 7.80721 2.60896 -52.01375 -8.03329 1.72814 1.56033
-0.32091 -0.00875 0.00893 -89.68663 -37.92827 -3.77145 23.15926 3.08171 -7.50296 13.97958 24.73134 -0.83079 44.6823 11.40027 33.98128 136.97166 125.41025 -58.70782 -8.52138 -9.87233 8.23532 -5.04011 41.55256 -63.89358 -18.2855 -0.21487 45.84003 6.33719 -12.33248 -17.78576 -6.89164 -3.52584 -2.50962 71.55923 6.93448 3.21399 -46.977 -7.82475 1.67725 1.52532
-0.31928 -0.00712 0.00275 -89.00429 -39.3065 -3.36887 22.92987 3.09723 -7.65776 15.48682 24.79172 -0.83079 44.88081 11.40592 34.56449 136.74254 125.57178 -58.48423 -8.29981 -8.41279 7.91717 -5.19811 40.81684 -64.1814 -18.1409 -0.18457 47.66037 5.9189 -11.83332 -17.70643 -6.98967 -3.64622 -2.58257 72.63469 5.94501 3.92385 -41.53596 -7.61575 1.61912 1.48657
-0.31807 -0.00594 -0.00228 -88.50669 -40.52036 -3.14145 22.75843 3.14518 -7.68783 16.85772 24.93003 -0.83079 45.21138 11.3965 35.15901 136.54224 125.63558 -58.39534 -8.10868 -7.10101 7.66319 -5.59522 40.27715 -64.43533 -18.03406 -0.15229 49.24839 5.64259 -11.41997 -17.66854 -7.06302 -3.7425 -2.64158 73.53774 5.18822 4.37739 -36.75379 -7.42896 1.58349 1.46076
